<svg xmlns="http://www.w3.org/2000/svg"><symbol viewBox="0 0 100 100" id="icon-carousel-arrow"><title>icon-carousel-arrow</title> <g id="icon-carousel-arrow-XMLID_1_"> <path id="icon-carousel-arrow-XMLID_3_" fill="#FFFFFF" d="M26.7,98.6c-0.5,0-1-0.2-1.5-0.6c-0.8-0.8-0.8-2.1,0-2.9l45.1-45.4L25.3,5
		c-0.8-0.8-0.8-2.1,0-2.9c0.8-0.8,2.1-0.8,2.9,0l46.5,46.1c0.4,0.4,0.6,0.9,0.6,1.5c0,0.5-0.2,1.1-0.6,1.5L28.2,98
		C27.8,98.4,27.3,98.6,26.7,98.6z"/> </g> </symbol><symbol viewBox="0 0 500 500" id="icon-entertainment"><title>icon-entertainment</title> <g id="icon-entertainment-XMLID_11_"> <path id="icon-entertainment-XMLID_16_" d="M466,190.6v-81.7H35.3v81.7c32.8,0,59.4,26.6,59.4,59.4s-26.6,59.4-59.4,59.4v81.7H466v-81.7
		c-32.8,0-59.4-26.6-59.4-59.4S433.2,190.6,466,190.6z M317.5,331.7H154.1V168.3h163.4V331.7z M384.3,368.8h-14.9V354h14.9V368.8z
		 M384.3,324.3h-14.9v-14.9h14.9V324.3z M384.3,279.7h-14.9v-14.9h14.9V279.7z M384.3,235.1h-14.9v-14.9h14.9V235.1z M384.3,190.6
		h-14.9v-14.9h14.9V190.6z M384.3,146h-14.9v-14.9h14.9V146z"/> <path id="icon-entertainment-XMLID_44_" d="M198.6,231.2h74.3c1.9,0,3.5-1.6,3.5-3.5s-1.6-3.5-3.5-3.5h-74.3c-1.9,0-3.5,1.6-3.5,3.5
		S196.7,231.2,198.6,231.2z"/> <path id="icon-entertainment-XMLID_45_" d="M198.6,275.8h74.3c1.9,0,3.5-1.6,3.5-3.5s-1.6-3.5-3.5-3.5h-74.3c-1.9,0-3.5,1.6-3.5,3.5
		S196.7,275.8,198.6,275.8z"/> </g> </symbol><symbol viewBox="0 0 88 88" id="icon-facebook"><title>icon-facebook</title> <circle id="icon-facebook-XMLID_1_" fill="#FFFFFF" cx="44.4" cy="45.6" r="30.4"/> <path fill="#FF02AF" d="M44,0.6C20,0.6,0.6,20,0.6,44S20,87.4,44,87.4S87.4,68,87.4,44S68,0.6,44,0.6z M54,31.3h-3.6
	c-2.9,0-3.4,1.3-3.4,3.3v4.3h6.7l-0.9,6.8H47v17.4h-6.9V45.7h-5.9v-6.8h5.9v-5c0-5.8,3.5-9,8.7-9c2.4,0,4.6,0.2,5.2,0.3V31.3z"/> </symbol><symbol viewBox="0 0 300 300" id="icon-latest-news"><title>icon-latest-news</title> <g id="icon-latest-news-XMLID_3_"> <path id="icon-latest-news-XMLID_6_" d="M117.6,144.1l-12.7,3.2l-7.1-28c-0.1-0.5-0.7-0.8-1.2-0.7l-4.6,1.2c-0.5,0.1-0.8,0.7-0.7,1.2l8.4,33
		c0.1,0.5,0.6,0.8,1.2,0.7l18.3-4.6c0.6-0.1,0.8-0.7,0.7-1.2l-1-4.1C118.7,144.3,118.2,144,117.6,144.1z"/> <path id="icon-latest-news-XMLID_28_" d="M153.4,128L136.8,56c-0.1-0.4-0.3-0.7-0.7-0.9c-0.3-0.2-0.8-0.3-1.2-0.2L38.3,78.6
		c-0.4,0.1-0.7,0.3-0.9,0.7c-0.2,0.3-0.3,0.8-0.2,1.2l34.2,132.9c0.2,0.7,0.8,1.1,1.5,1.1c0.1,0,0.2,0,0.3,0l55.7-12.9
		c0.8-0.2,1.3-1,1.1-1.8c-0.1-0.5-0.5-0.9-1-1.1l1-3.1l-6.4,4.1l-8.7,2l16.6-10.7l1.5-4.6l-26.8,17.3l-8.7,2l37-23.9l1.5-4.6
		l-47.2,30.5l-8.7,2l57.3-37.1l1.5-4.6l-65.2,42.2l-24.4-94.8l85.3-55.2l15.8,68.2c0.2,0.8,1,1.3,1.8,1.1
		C153.1,129.6,153.6,128.8,153.4,128z M40.5,81.2l1-0.2l-0.9,0.6L40.5,81.2z M41.3,84.7l9.1-5.9l9-2.2L42.1,87.7L41.3,84.7z
		 M42.9,90.8l25.5-16.5l9-2.2L43.7,93.9L42.9,90.8z M44.5,97l41.9-27.1l9-2.2l-50.1,32.4L44.5,97z M46.1,103.2l58.3-37.7l9-2.2
		l-66.5,43L46.1,103.2z M48.5,112.5l-0.8-3.1l74.7-48.3l9-2.2L48.5,112.5z"/> </g> <g id="icon-latest-news-XMLID_1_"> <path id="icon-latest-news-XMLID_4_" d="M172.1,174.8l4.5,1.5c0.5,0.2,1.1-0.1,1.2-0.6l6.9-21l0,0l13.1,29.1l1.2,0.4c0.5,0.2,1.1-0.1,1.2-0.6
		l10.7-32.9c0.2-0.5-0.1-1.1-0.6-1.2l-4.5-1.5c-0.5-0.2-1.1,0.1-1.2,0.6l-6.6,20.2l0,0l-13.3-28.3l-1.2-0.4
		c-0.5-0.2-1.1,0.1-1.2,0.6l-10.7,32.9C171.3,174.1,171.6,174.6,172.1,174.8z"/> <path id="icon-latest-news-XMLID_9_" d="M262.7,112.2c-0.2-0.4-0.5-0.6-0.9-0.8l-94.4-31.5c-0.4-0.1-0.8-0.1-1.2,0.1c-0.4,0.2-0.6,0.5-0.8,0.9
		l-41.9,130.7c-0.3,0.8,0.2,1.6,0.9,1.9l90.8,31.5c0.2,0.1,0.3,0.1,0.5,0.1c0.6,0,1.2-0.4,1.4-1l45.5-130.8
		C262.9,113,262.9,112.5,262.7,112.2z M167.9,83.3l1,0.3l-1.1,0L167.9,83.3z M166.9,86.7l10.9-0.1l8.8,2.9l-20.6,0.2L166.9,86.7z
		 M164.9,92.8l30.4-0.3l8.8,2.9l-40.1,0.5L164.9,92.8z M163,98.8l49.9-0.6l8.8,2.9l-59.7,0.7L163,98.8z M161,104.9l69.4-0.8l8.8,2.9
		L160,108L161,104.9z M159.1,111l88.9-1l8.8,2.9l-98.7,1.1L159.1,111z M215.7,239.5l-6.7,0.1l-8.4-2.9l16.2-0.2L215.7,239.5z
		 M217.8,233.5l-25.7,0.3l-8.4-2.9l35.2-0.4L217.8,233.5z M219.9,227.4l-44.8,0.5l-8.4-2.9l54.3-0.6L219.9,227.4z M222,221.3
		l-63.8,0.7l-8.4-2.9l73.3-0.8L222,221.3z M224.1,215.2l-82.8,0.9l-8.4-2.9l92.3-1.1L224.1,215.2z M226.3,209.1l-99,1.1l29.9-93.2
		l101.6-1.2L226.3,209.1z"/> </g> </symbol><symbol viewBox="0 0 97.4 38" id="icon-npm-logo"><title>npm-logo</title><path fill="#CD3632" d="M0 0h97.4v32.7H48.7V38H27.1v-5.3H0V0zm5.5 27.2h10.8V10.8h5.4v16.4h5.4V5.6H5.5v21.6zM32.4 5.5l.1 27.3h10.7v-5.4H54V5.5H32.4zm10.7 5.2h5.7v11.1h-5.7V10.7zm16.4-5.2v21.6h10.8V10.8h5.4V27h5.4V10.9h5.4v16.2h5.4V5.5H59.5z"/></symbol><symbol viewBox="0 0 500 500" id="icon-restaurant"><title>icon-restaurant</title> <style type="text/css"> .st0{stroke:#000000;stroke-width:4;stroke-linecap:square;stroke-miterlimit:10;} .st1{fill:none;stroke:#000000;stroke-width:4;stroke-linecap:square;stroke-miterlimit:10;} </style> <g id="icon-restaurant-XMLID_8_"> <polygon id="icon-restaurant-XMLID_5_" class="st0" points="463.7,358 36.3,358 80.3,405.5 416.2,405.5 	"/> <circle id="icon-restaurant-XMLID_1_" class="st0" cx="250" cy="115.2" r="31.7"/> <g id="icon-restaurant-XMLID_2_"> <g id="icon-restaurant-XMLID_38_"> <path id="icon-restaurant-XMLID_39_" d="M250,145.4c-104.9,0-190,85.1-190,190h380C440,230.4,354.9,145.4,250,145.4z M131.5,244.6
				c0,0,36.1-61.2,116.6-63.3C248.1,181.2,174.9,203.4,131.5,244.6z"/> </g> <g id="icon-restaurant-XMLID_30_"> <path id="icon-restaurant-XMLID_31_" class="st1" d="M250,145.4c-104.9,0-190,85.1-190,190h380C440,230.4,354.9,145.4,250,145.4z M131.5,244.6
				c0,0,36.1-61.2,116.6-63.3C248.1,181.2,174.9,203.4,131.5,244.6z"/> </g> </g> </g> </symbol><symbol viewBox="0 0 88 88" id="icon-twitter"><title>icon-twitter</title> <circle id="icon-twitter-XMLID_1_" fill="#FFFFFF" cx="44.4" cy="45.6" r="30.4"/> <path id="icon-twitter-XMLID_70_" fill="#FF02AF" d="M44,0.6C20.1,0.6,0.6,20.1,0.6,44c0,23.9,19.4,43.4,43.4,43.4S87.4,67.9,87.4,44
	C87.4,20.1,67.9,0.6,44,0.6z M59.9,35.8c0,0.4,0,0.7,0,1.1c0,10.9-8.3,23.4-23.4,23.4c-4.6,0-9-1.4-12.6-3.7c0.6,0.1,1.3,0.1,2,0.1
	c3.9,0,7.4-1.3,10.2-3.5c-3.6-0.1-6.6-2.4-7.7-5.7c0.5,0.1,1,0.1,1.5,0.1c0.7,0,1.7-0.1,2.4-0.3c-3.8-0.8-6.4-4.1-6.4-8.1
	c0,0,0-0.1,0-0.1c1,0.6,2.2,1,3.5,1c-2.2-1.5-3.8-4-3.8-6.8c0-1.5,0.4-2.9,1.1-4.1c4.1,5,10.1,8.2,16.9,8.6
	c-0.1-0.6-0.2-1.2-0.2-1.9c0-4.5,3.7-8.2,8.2-8.2c2.4,0,4.5,1,6,2.6c1.9-0.4,3.6-1.1,5.2-2c-0.6,1.9-1.9,3.5-3.6,4.5
	c1.7-0.2,3.2-0.6,4.7-1.3C62.9,33.2,61.5,34.7,59.9,35.8z"/> </symbol></svg>