<svg xmlns="http://www.w3.org/2000/svg"><symbol viewBox="0 0 500 500" id="icon-bars"><title>icon-bars</title> <g id="icon-bars-XMLID_298_"> <path id="icon-bars-XMLID_300_" d="M341.1,358.4l-10.5-112c-10.8-2.8-21.1-8.9-29.1-15.7c-18.1,16.5-40.4,23.2-64.2,19.2
		c-1.3,8.4-4.8,16.2-10.3,22.1c-7.2,7.8-16.9,12.1-27.5,12.1c-10.6,0-20.8-4.4-28.4-12.3l-13.4,86.7c-8,2.2-14,10.3-14,19.9
		c0,11.3,8.3,20.6,18.4,20.6h175c10.1,0,18.4-9.3,18.4-20.6C355.5,368.7,349.3,360.4,341.1,358.4z M281.6,294.4
		c1.7-0.1,3.2,0.8,3.4,2.1l6,44.1c0.2,1.3-1.1,2.5-2.8,2.6c-0.1,0-0.2,0-0.3,0c-1.6,0-2.9-0.9-3.1-2.1l-6-44.1
		C278.7,295.7,279.9,294.6,281.6,294.4z M246.9,297.7c0-1.3,1.4-2.4,3.1-2.4c1.7,0,3.1,1.1,3.1,2.4V341c0,1.3-1.4,2.4-3.1,2.4
		c-1.7,0-3.1-1.1-3.1-2.4V297.7z M210.3,340.7l6-44.1c0.2-1.3,1.7-2.3,3.4-2.1c1.7,0.1,2.9,1.3,2.8,2.6l-6,44.1
		c-0.2,1.2-1.5,2.1-3.1,2.1c-0.1,0-0.2,0-0.3,0C211.4,343.2,210.1,342,210.3,340.7z"/> <path id="icon-bars-XMLID_299_" d="M342.5,127.8c-9.8,0-17.9,5.5-25.7,10.3C305.2,114.5,286,97,255.1,97c-30.8,0-55.2,17.5-66.8,41.1
		c-7.8-4.7-15.9-10.3-25.7-10.3c-30.8,0-56.5,20.6-56.5,51.4c0,30.8,28.4,55.9,61.7,51.4c-4.7,20.3,11.1,41.3,31.7,41.3
		c17.9,0,31.6-15.8,29.9-36.2c25.2,7.2,51.2,2.2,71.9-20.6c9.5,10.3,26,20.6,41.1,20.6c30.8,0,51.4-25.7,51.4-56.5
		C393.9,148.4,373.3,127.8,342.5,127.8z"/> </g> </symbol><symbol viewBox="0 0 500 500" id="icon-cafes"><title>icon-cafes</title> <path id="icon-cafes-XMLID_80_" d="M360.6,140.7v-29.5H113V347c0,25.9,21.2,47.2,47.2,47.2h153.3c25.9,0,47.2-21.2,47.2-47.2v-17.7
	c52.1,0,94.3-42.2,94.3-94.3C454.9,182.9,412.7,140.7,360.6,140.7z M166.1,323.4c0,3.3-2.7,6-6,6s-6-2.7-6-6V158.4c0-3.3,2.7-6,6-6
	s6,2.7,6,6V323.4z M360.6,294V176.1c32.6,0,59,26.4,59,59C419.5,267.6,393.1,294,360.6,294z"/> </symbol><symbol viewBox="0 0 100 100" id="icon-carousel-arrow"><title>icon-carousel-arrow</title> <g id="icon-carousel-arrow-XMLID_1_"> <path id="icon-carousel-arrow-XMLID_3_" fill="#FFFFFF" d="M26.7,98.6c-0.5,0-1-0.2-1.5-0.6c-0.8-0.8-0.8-2.1,0-2.9l45.1-45.4L25.3,5
		c-0.8-0.8-0.8-2.1,0-2.9c0.8-0.8,2.1-0.8,2.9,0l46.5,46.1c0.4,0.4,0.6,0.9,0.6,1.5c0,0.5-0.2,1.1-0.6,1.5L28.2,98
		C27.8,98.4,27.3,98.6,26.7,98.6z"/> </g> </symbol><symbol viewBox="0 0 100 100" id="icon-close-cross"><title>icon-close-cross</title> <style type="text/css"> .st0{fill:#FFFFFF;} </style> <polygon id="icon-close-cross-XMLID_6_" class="st0" points="95.1,9 90.8,4.7 50,45.6 9.5,5.1 5.3,9.4 45.7,49.8 4.2,91.3 8.5,95.6 50,54 90.8,94.9 
	95.1,90.6 54.2,49.8 "/> </symbol><symbol viewBox="0 0 500 500" id="icon-entertainment"><title>icon-entertainment</title> <g id="icon-entertainment-XMLID_11_"> <path id="icon-entertainment-XMLID_16_" d="M466,190.6v-81.7H35.3v81.7c32.8,0,59.4,26.6,59.4,59.4s-26.6,59.4-59.4,59.4v81.7H466v-81.7
		c-32.8,0-59.4-26.6-59.4-59.4S433.2,190.6,466,190.6z M317.5,331.7H154.1V168.3h163.4V331.7z M384.3,368.8h-14.9V354h14.9V368.8z
		 M384.3,324.3h-14.9v-14.9h14.9V324.3z M384.3,279.7h-14.9v-14.9h14.9V279.7z M384.3,235.1h-14.9v-14.9h14.9V235.1z M384.3,190.6
		h-14.9v-14.9h14.9V190.6z M384.3,146h-14.9v-14.9h14.9V146z"/> <path id="icon-entertainment-XMLID_44_" d="M198.6,231.2h74.3c1.9,0,3.5-1.6,3.5-3.5s-1.6-3.5-3.5-3.5h-74.3c-1.9,0-3.5,1.6-3.5,3.5
		S196.7,231.2,198.6,231.2z"/> <path id="icon-entertainment-XMLID_45_" d="M198.6,275.8h74.3c1.9,0,3.5-1.6,3.5-3.5s-1.6-3.5-3.5-3.5h-74.3c-1.9,0-3.5,1.6-3.5,3.5
		S196.7,275.8,198.6,275.8z"/> </g> </symbol><symbol viewBox="0 0 88 88" id="icon-facebook"><title>icon-facebook</title> <circle id="icon-facebook-XMLID_1_" fill="#FFFFFF" cx="44.4" cy="45.6" r="30.4"/> <path fill="#FF02AF" d="M44,0.6C20,0.6,0.6,20,0.6,44S20,87.4,44,87.4S87.4,68,87.4,44S68,0.6,44,0.6z M54,31.3h-3.6
	c-2.9,0-3.4,1.3-3.4,3.3v4.3h6.7l-0.9,6.8H47v17.4h-6.9V45.7h-5.9v-6.8h5.9v-5c0-5.8,3.5-9,8.7-9c2.4,0,4.6,0.2,5.2,0.3V31.3z"/> </symbol><symbol viewBox="0 0 300 300" id="icon-latest-news"><title>icon-latest-news</title> <g id="icon-latest-news-XMLID_3_"> <path id="icon-latest-news-XMLID_6_" d="M117.6,144.1l-12.7,3.2l-7.1-28c-0.1-0.5-0.7-0.8-1.2-0.7l-4.6,1.2c-0.5,0.1-0.8,0.7-0.7,1.2l8.4,33
		c0.1,0.5,0.6,0.8,1.2,0.7l18.3-4.6c0.6-0.1,0.8-0.7,0.7-1.2l-1-4.1C118.7,144.3,118.2,144,117.6,144.1z"/> <path id="icon-latest-news-XMLID_28_" d="M153.4,128L136.8,56c-0.1-0.4-0.3-0.7-0.7-0.9c-0.3-0.2-0.8-0.3-1.2-0.2L38.3,78.6
		c-0.4,0.1-0.7,0.3-0.9,0.7c-0.2,0.3-0.3,0.8-0.2,1.2l34.2,132.9c0.2,0.7,0.8,1.1,1.5,1.1c0.1,0,0.2,0,0.3,0l55.7-12.9
		c0.8-0.2,1.3-1,1.1-1.8c-0.1-0.5-0.5-0.9-1-1.1l1-3.1l-6.4,4.1l-8.7,2l16.6-10.7l1.5-4.6l-26.8,17.3l-8.7,2l37-23.9l1.5-4.6
		l-47.2,30.5l-8.7,2l57.3-37.1l1.5-4.6l-65.2,42.2l-24.4-94.8l85.3-55.2l15.8,68.2c0.2,0.8,1,1.3,1.8,1.1
		C153.1,129.6,153.6,128.8,153.4,128z M40.5,81.2l1-0.2l-0.9,0.6L40.5,81.2z M41.3,84.7l9.1-5.9l9-2.2L42.1,87.7L41.3,84.7z
		 M42.9,90.8l25.5-16.5l9-2.2L43.7,93.9L42.9,90.8z M44.5,97l41.9-27.1l9-2.2l-50.1,32.4L44.5,97z M46.1,103.2l58.3-37.7l9-2.2
		l-66.5,43L46.1,103.2z M48.5,112.5l-0.8-3.1l74.7-48.3l9-2.2L48.5,112.5z"/> </g> <g id="icon-latest-news-XMLID_1_"> <path id="icon-latest-news-XMLID_4_" d="M172.1,174.8l4.5,1.5c0.5,0.2,1.1-0.1,1.2-0.6l6.9-21l0,0l13.1,29.1l1.2,0.4c0.5,0.2,1.1-0.1,1.2-0.6
		l10.7-32.9c0.2-0.5-0.1-1.1-0.6-1.2l-4.5-1.5c-0.5-0.2-1.1,0.1-1.2,0.6l-6.6,20.2l0,0l-13.3-28.3l-1.2-0.4
		c-0.5-0.2-1.1,0.1-1.2,0.6l-10.7,32.9C171.3,174.1,171.6,174.6,172.1,174.8z"/> <path id="icon-latest-news-XMLID_9_" d="M262.7,112.2c-0.2-0.4-0.5-0.6-0.9-0.8l-94.4-31.5c-0.4-0.1-0.8-0.1-1.2,0.1c-0.4,0.2-0.6,0.5-0.8,0.9
		l-41.9,130.7c-0.3,0.8,0.2,1.6,0.9,1.9l90.8,31.5c0.2,0.1,0.3,0.1,0.5,0.1c0.6,0,1.2-0.4,1.4-1l45.5-130.8
		C262.9,113,262.9,112.5,262.7,112.2z M167.9,83.3l1,0.3l-1.1,0L167.9,83.3z M166.9,86.7l10.9-0.1l8.8,2.9l-20.6,0.2L166.9,86.7z
		 M164.9,92.8l30.4-0.3l8.8,2.9l-40.1,0.5L164.9,92.8z M163,98.8l49.9-0.6l8.8,2.9l-59.7,0.7L163,98.8z M161,104.9l69.4-0.8l8.8,2.9
		L160,108L161,104.9z M159.1,111l88.9-1l8.8,2.9l-98.7,1.1L159.1,111z M215.7,239.5l-6.7,0.1l-8.4-2.9l16.2-0.2L215.7,239.5z
		 M217.8,233.5l-25.7,0.3l-8.4-2.9l35.2-0.4L217.8,233.5z M219.9,227.4l-44.8,0.5l-8.4-2.9l54.3-0.6L219.9,227.4z M222,221.3
		l-63.8,0.7l-8.4-2.9l73.3-0.8L222,221.3z M224.1,215.2l-82.8,0.9l-8.4-2.9l92.3-1.1L224.1,215.2z M226.3,209.1l-99,1.1l29.9-93.2
		l101.6-1.2L226.3,209.1z"/> </g> </symbol><symbol viewBox="0 0 500 500" id="icon-nightclubs"><title>icon-nightclubs</title> <path id="icon-nightclubs-XMLID_375_" d="M370.9,271.9V81.7L189.5,159l-0.8,171.4c-11.2,0-23.9,0-28.6,0c-24.5,0-41,19.8-41,44.3
	c0,24.5,16.5,43.5,41,43.5c24.5,0,46.8-18.8,46.8-41c0-13.9,0-27.3,0-40l0.2,0l0.5-104.4l144.7-60.9v100c-8.8,0-18.1,0-22.5,0
	c-24.5,0-46.8,19.8-46.8,44.3c0,24.5,22.4,43.5,46.8,43.5c24.5,0,41-18.8,41-41C370.9,304,370.9,286.7,370.9,271.9
	C370.9,271.9,370.9,271.9,370.9,271.9z M207.7,213.3l0.2-42l144.4-61.6v42.7L207.7,213.3z"/> </symbol><symbol viewBox="0 0 97.4 38" id="icon-npm-logo"><title>npm-logo</title><path fill="#CD3632" d="M0 0h97.4v32.7H48.7V38H27.1v-5.3H0V0zm5.5 27.2h10.8V10.8h5.4v16.4h5.4V5.6H5.5v21.6zM32.4 5.5l.1 27.3h10.7v-5.4H54V5.5H32.4zm10.7 5.2h5.7v11.1h-5.7V10.7zm16.4-5.2v21.6h10.8V10.8h5.4V27h5.4V10.9h5.4v16.2h5.4V5.5H59.5z"/></symbol><symbol viewBox="0 0 500 500" id="icon-restaurant"><title>icon-restaurant</title> <style type="text/css"> .st0{stroke:#000000;stroke-width:4;stroke-linecap:square;stroke-miterlimit:10;} .st1{fill:none;stroke:#000000;stroke-width:4;stroke-linecap:square;stroke-miterlimit:10;} </style> <g id="icon-restaurant-XMLID_8_"> <polygon id="icon-restaurant-XMLID_5_" class="st0" points="463.7,358 36.3,358 80.3,405.5 416.2,405.5 	"/> <circle id="icon-restaurant-XMLID_1_" class="st0" cx="250" cy="115.2" r="31.7"/> <g id="icon-restaurant-XMLID_2_"> <g id="icon-restaurant-XMLID_38_"> <path id="icon-restaurant-XMLID_39_" d="M250,145.4c-104.9,0-190,85.1-190,190h380C440,230.4,354.9,145.4,250,145.4z M131.5,244.6
				c0,0,36.1-61.2,116.6-63.3C248.1,181.2,174.9,203.4,131.5,244.6z"/> </g> <g id="icon-restaurant-XMLID_30_"> <path id="icon-restaurant-XMLID_31_" class="st1" d="M250,145.4c-104.9,0-190,85.1-190,190h380C440,230.4,354.9,145.4,250,145.4z M131.5,244.6
				c0,0,36.1-61.2,116.6-63.3C248.1,181.2,174.9,203.4,131.5,244.6z"/> </g> </g> </g> </symbol><symbol viewBox="0 0 100 100" id="icon-scroll-down-arrow--white"><title>icon-scroll-down-arrow--white</title> <path id="icon-scroll-down-arrow--white-XMLID_6_" d="M69.3,51.6c-0.8-0.8-2-0.8-2.8,0L52,66V29.2c0-1.1-0.9-2-2-2s-2,0.9-2,2V66L33.6,51.6c-0.8-0.8-2-0.8-2.8,0
	c-0.8,0.8-0.8,2,0,2.8l17.9,17.9c0.1,0.1,0.2,0.2,0.3,0.3c0,0,0.1,0.1,0.2,0.1c0.1,0,0.1,0.1,0.2,0.1c0.1,0,0.1,0,0.2,0.1
	c0.1,0,0.1,0,0.2,0.1c0.1,0,0.3,0,0.4,0s0.3,0,0.4,0c0.1,0,0.1,0,0.2-0.1c0.1,0,0.1,0,0.2-0.1c0.1,0,0.1-0.1,0.2-0.1
	c0,0,0.1,0,0.1-0.1c0.1-0.1,0.2-0.2,0.3-0.3l17.9-17.9C70.1,53.6,70.1,52.3,69.3,51.6z"/> </symbol><symbol viewBox="0 0 88 64.4" id="icon-signup-to-emails"><title>icon-signup-to-emails</title> <path id="icon-signup-to-emails-XMLID_19_" d="M82.8,3.2C82.8,3.2,82.8,3.2,82.8,3.2H3v3.3v51.4v3.3h82v-3.3V6.5V3.2H82.8z M51.9,33l-6.8,6.8
	c-0.6,0.6-1.6,0.6-2.2,0.1L36.1,33l0.1,0.1L10.3,7.2h67.3L51.9,33.1L51.9,33z M30.2,32.9L7,55.2V9.6L30.2,32.9z M33.2,35.5l6.9,7.1
	c1.1,1,2.4,1.6,3.8,1.6c1.4,0,2.8-0.5,3.9-1.5l6.9-7.1l22.7,21.7H10.4L33.2,35.5z M57.8,32.9L81,9.6v45.6L57.8,32.9z"/> </symbol><symbol viewBox="0 0 88 88" id="icon-social-brandcolor_circle-facebook"><title>icon-social-brandcolor_circle-facebook</title> <style type="text/css"> .st0{fill:#FF02AF;} .st1{fill:#FFFFFF;} </style> <g id="icon-social-brandcolor_circle-facebook-Facebook"> <circle id="icon-social-brandcolor_circle-facebook-XMLID_69_" class="st0" cx="44" cy="44" r="43"/> <path id="icon-social-brandcolor_circle-facebook-XMLID_70_" class="st1" d="M47,63.1V45.7h5.8l0.9-6.8H47v-4.3c0-2,0.5-3.3,3.4-3.3l3.6,0v-6.1c-0.6-0.1-2.8-0.3-5.2-0.3
		c-5.2,0-8.7,3.2-8.7,9v5h-5.9v6.8h5.9v17.4H47z"/> </g> </symbol><symbol viewBox="0 0 88 88" id="icon-social-brandcolor_circle-instagram"><title>icon-social-brandcolor_circle-instagram</title> <style type="text/css"> .st0{fill:#FF02AF;} .st1{fill-rule:evenodd;clip-rule:evenodd;fill:#FFFFFF;} </style> <g id="icon-social-brandcolor_circle-instagram-Instagram"> <circle id="icon-social-brandcolor_circle-instagram-XMLID_43_" class="st0" cx="44" cy="44" r="43"/> <path id="icon-social-brandcolor_circle-instagram-XMLID_49_" class="st1" d="M29.8,24.9h28.4c2.7,0,4.9,2.2,4.9,4.9v28.4c0,2.7-2.2,4.9-4.9,4.9H29.8
		c-2.7,0-4.9-2.2-4.9-4.9V29.8C24.9,27.1,27.1,24.9,29.8,24.9L29.8,24.9z M52.7,29.1c-0.9,0-1.7,0.8-1.7,1.7V35
		c0,0.9,0.8,1.7,1.7,1.7h4.3c0.9,0,1.7-0.8,1.7-1.7v-4.1c0-0.9-0.8-1.7-1.7-1.7H52.7L52.7,29.1z M58.8,41.1h-3.4
		c0.3,1,0.5,2.1,0.5,3.3c0,6.4-5.3,11.5-11.9,11.5c-6.6,0-11.9-5.2-11.9-11.5c0-1.1,0.2-2.2,0.5-3.3h-3.5v16.2
		c0,0.8,0.7,1.5,1.5,1.5h26.6c0.8,0,1.5-0.7,1.5-1.5V41.1L58.8,41.1z M44,36.5c-4.2,0-7.7,3.3-7.7,7.4c0,4.1,3.4,7.4,7.7,7.4
		c4.2,0,7.7-3.3,7.7-7.4C51.7,39.8,48.3,36.5,44,36.5z"/> </g> </symbol><symbol viewBox="0 0 88 88" id="icon-social-brandcolor_circle-twitter"><title>icon-social-brandcolor_circle-twitter</title> <style type="text/css"> .st0{fill:#FF02AF;} .st1{fill:#FFFFFF;} </style> <g id="icon-social-brandcolor_circle-twitter-Twitter"> <circle id="icon-social-brandcolor_circle-twitter-XMLID_2_" class="st0" cx="44" cy="44" r="43"/> <path id="icon-social-brandcolor_circle-twitter-XMLID_3_" class="st1" d="M64,31.6c-1.5,0.7-3.1,1.1-4.7,1.3c1.7-1,3-2.6,3.6-4.5c-1.6,0.9-3.3,1.6-5.2,2
		c-1.5-1.6-3.6-2.6-6-2.6c-4.5,0-8.2,3.7-8.2,8.2c0,0.6,0.1,1.3,0.2,1.9c-6.8-0.3-12.9-3.6-16.9-8.6c-0.7,1.2-1.1,2.6-1.1,4.1
		c0,2.9,1.5,5.4,3.7,6.8c-1.3,0-2.6-0.4-3.7-1c0,0,0,0.1,0,0.1c0,4,2.8,7.3,6.6,8.1c-0.7,0.2-1.4,0.3-2.2,0.3c-0.5,0-1-0.1-1.5-0.1
		c1,3.3,4.1,5.6,7.7,5.7c-2.8,2.2-6.4,3.5-10.2,3.5c-0.7,0-1.3,0-2-0.1c3.6,2.3,8,3.7,12.6,3.7C51.7,60.3,60,47.8,60,36.9
		c0-0.4,0-0.7,0-1.1C61.5,34.7,62.9,33.2,64,31.6z"/> </g> </symbol><symbol viewBox="0 0 88 88" id="icon-social-white_circle-facebook"><title>icon-social-white_circle-facebook</title> <style type="text/css"> .st0{fill:#FFFFFF;} </style> <path id="icon-social-white_circle-facebook-Facebook_1_" class="st0" d="M44,1C20.2,1,1,20.3,1,44c0,23.8,19.3,43,43,43s43-19.3,43-43C87,20.3,67.8,1,44,1z M54,31.2
	l-3.6,0c-2.8,0-3.4,1.3-3.4,3.3V39h6.7l-0.9,7H47v17h-7V46h-6v-7h6v-5.1c0-5.8,3.6-9,8.7-9c2.5,0,4.3,0.2,5.3,0.3V31.2z"/> </symbol><symbol viewBox="0 0 88 88" id="icon-social-white_circle-instagram"><title>icon-social-white_circle-instagram</title> <style type="text/css"> .st0{fill:#FFFFFF;} </style> <path id="icon-social-white_circle-instagram-Instagram_1_" class="st0" d="M36.4,43.9c0-4.1,3.4-7.4,7.7-7.4c4.2,0,7.7,3.3,7.7,7.4c0,4.1-3.4,7.4-7.7,7.4
	C39.8,51.4,36.4,48,36.4,43.9z M55.9,44.3c0,6.4-5.3,11.5-11.9,11.5s-11.9-5.2-11.9-11.5c0-1.1,0.2-2.3,0.5-3.3H29v16.2
	c0,0.8,0.8,1.8,1.6,1.8h26.6c0.8,0,1.7-1,1.7-1.8V41h-3.6C55.8,42,55.9,43.2,55.9,44.3z M57.3,29h-4.6c-1,0-1.7,0.8-1.7,1.7v4.6
	c0,1,0.8,1.7,1.7,1.7h4.6c1,0,1.7-0.8,1.7-1.7v-4.6C59,29.8,58.2,29,57.3,29z M87,44c0,23.8-19.3,43-43,43S1,67.8,1,44
	C1,20.3,20.2,1,44,1S87,20.3,87,44z M63,29.9c0-2.7-2.2-4.9-4.9-4.9H29.9c-2.7,0-4.9,2.2-4.9,4.9v28.2c0,2.7,2.2,4.9,4.9,4.9h28.2
	c2.7,0,4.9-2.2,4.9-4.9V29.9z"/> </symbol><symbol viewBox="0 0 88 88" id="icon-social-white_circle-twitter"><title>icon-social-white_circle-twitter</title> <style type="text/css"> .st0{fill:#FFFFFF;} </style> <path id="icon-social-white_circle-twitter-Twitter_1_" class="st0" d="M44,1C20.2,1,1,20.3,1,44c0,23.8,19.3,43,43,43s43-19.3,43-43C87,20.3,67.8,1,44,1z M59.9,35.8
	c0,0.4,0,0.7,0,1.1c0,10.9-8.3,23.4-23.4,23.4c-4.6,0-9-1.4-12.6-3.7c0.6,0.1,1.3,0.1,2,0.1c3.9,0,7.4-1.3,10.2-3.5
	c-3.6-0.1-6.6-2.4-7.7-5.7c0.5,0.1,1,0.1,1.5,0.1c0.7,0,1.7-0.1,2.4-0.3c-3.8-0.8-6.4-4.1-6.4-8.1c0,0,0-0.1,0-0.1
	c1,0.6,2.2,1,3.5,1c-2.2-1.5-3.8-4-3.8-6.8c0-1.5,0.4-2.9,1.1-4.1c4.1,5,10.1,8.2,16.9,8.6c-0.1-0.6-0.2-1.2-0.2-1.9
	c0-4.5,3.7-8.2,8.2-8.2c2.4,0,4.5,1,6,2.6c1.9-0.4,3.6-1.1,5.2-2c-0.6,1.9-1.9,3.5-3.6,4.5c1.7-0.2,3.2-0.6,4.7-1.3
	C62.9,33.2,61.5,34.7,59.9,35.8z"/> </symbol><symbol viewBox="0 0 88 88" id="icon-twitter"><title>icon-twitter</title> <circle id="icon-twitter-XMLID_1_" fill="#FFFFFF" cx="44.4" cy="45.6" r="30.4"/> <path id="icon-twitter-XMLID_70_" fill="#FF02AF" d="M44,0.6C20.1,0.6,0.6,20.1,0.6,44c0,23.9,19.4,43.4,43.4,43.4S87.4,67.9,87.4,44
	C87.4,20.1,67.9,0.6,44,0.6z M59.9,35.8c0,0.4,0,0.7,0,1.1c0,10.9-8.3,23.4-23.4,23.4c-4.6,0-9-1.4-12.6-3.7c0.6,0.1,1.3,0.1,2,0.1
	c3.9,0,7.4-1.3,10.2-3.5c-3.6-0.1-6.6-2.4-7.7-5.7c0.5,0.1,1,0.1,1.5,0.1c0.7,0,1.7-0.1,2.4-0.3c-3.8-0.8-6.4-4.1-6.4-8.1
	c0,0,0-0.1,0-0.1c1,0.6,2.2,1,3.5,1c-2.2-1.5-3.8-4-3.8-6.8c0-1.5,0.4-2.9,1.1-4.1c4.1,5,10.1,8.2,16.9,8.6
	c-0.1-0.6-0.2-1.2-0.2-1.9c0-4.5,3.7-8.2,8.2-8.2c2.4,0,4.5,1,6,2.6c1.9-0.4,3.6-1.1,5.2-2c-0.6,1.9-1.9,3.5-3.6,4.5
	c1.7-0.2,3.2-0.6,4.7-1.3C62.9,33.2,61.5,34.7,59.9,35.8z"/> </symbol><symbol viewBox="0 0 300.9 63.2" id="logo-purple"><title>logo-purple</title> <style type="text/css"> .st0{fill:#010202;} </style> <path class="st0" d="M96,44.4c0,3.5-2.8,6.3-6.3,6.3H71.3c-3.5,0-6.3-2.8-6.3-6.3V6.3h-6.2v38.1c0,6.9,5.6,12.5,12.5,12.5h18.4
	c6.9,0,12.5-5.6,12.5-12.5V6.3H96V44.4z"/> <path class="st0" d="M297.3,18.8c0-6.9-5.6-12.5-12.5-12.5h-21.3c-6.9,0-12.5,5.6-12.5,12.5h0v25.6c0,6.9,5.6,12.5,12.5,12.5H293
	v-6.2h-29.5c-3.5,0-6.3-2.8-6.3-6.3V41c0-3.5,2.8-6.3,6.3-6.3h21.3c6.9,0,12.5-5.6,12.5-12.5L297.3,18.8L297.3,18.8z M291.1,22.2
	L291.1,22.2c0,3.5-2.8,6.3-6.3,6.3h-21.3c-2.3,0-4.4,0.6-6.3,1.7V18.9c0-3.5,2.8-6.3,6.3-6.3h21.3c3.5,0,6.3,2.8,6.3,6.3V22.2z"/> <path class="st0" d="M141.9,6.3h-20.5c-6.9,0-12.5,5.6-12.5,12.5v38.1h6.2V18.9c0-3.5,2.8-6.3,6.3-6.3h20.5c3.5,0,6.3,2.8,6.3,6.3
	v3.2h6.2v-3.2C154.5,11.9,148.8,6.3,141.9,6.3z"/> <path class="st0" d="M218.5,44.4V6.3h-6.2v38.1c0,6.9,5.6,12.5,12.5,12.5h23v-6.2h-23C221.3,50.7,218.5,47.9,218.5,44.4z"/> <path class="st0" d="M194.7,6.3h-23.2c-6.9,0-12.5,5.6-12.5,12.5h0v38.1h6.2V44.3c0-3.5,2.8-6.3,6.3-6.3h23.2
	c6.9,0,12.5-5.6,12.5-12.5v-6.7h0C207.2,11.9,201.6,6.3,194.7,6.3z M201,25.5L201,25.5c0,3.5-2.8,6.3-6.3,6.3h-23.2
	c-2.3,0-4.4,0.6-6.3,1.7V18.9c0-3.5,2.8-6.3,6.3-6.3v0h23.2v0c3.5,0,6.3,2.8,6.3,6.3V25.5z"/> <path class="st0" d="M41.1,6.3H17.9C11,6.3,5.4,11.9,5.4,18.8h0v38.1h6.2V44.3c0-3.5,2.8-6.3,6.3-6.3h23.2c6.9,0,12.5-5.6,12.5-12.5
	v-6.7h0C53.6,11.9,48,6.3,41.1,6.3z M47.4,25.5L47.4,25.5c0,3.5-2.8,6.3-6.3,6.3H17.9c-2.3,0-4.5,0.6-6.3,1.7V18.9
	c0-3.5,2.8-6.3,6.3-6.3v0h23.2v0c3.5,0,6.3,2.8,6.3,6.3V25.5z"/> </symbol></svg>