<?xml version="1.0" encoding="utf-8"?>
<!-- Generator: Adobe Illustrator 19.0.0, SVG Export Plug-In . SVG Version: 6.00 Build 0)  -->
<svg version="1.1" id="Layer_1" xmlns="http://www.w3.org/2000/svg" xmlns:xlink="http://www.w3.org/1999/xlink" x="0px" y="0px"
	 width="88px" height="88px" viewBox="0 0 88 88" style="enable-background:new 0 0 88 88;" xml:space="preserve">
<style type="text/css">
	.st0{fill:#FFFFFF;}
</style>
<path id="Twitter_1_" class="st0" d="M44,1C20.2,1,1,20.3,1,44c0,23.8,19.3,43,43,43s43-19.3,43-43C87,20.3,67.8,1,44,1z M59.9,35.8
	c0,0.4,0,0.7,0,1.1c0,10.9-8.3,23.4-23.4,23.4c-4.6,0-9-1.4-12.6-3.7c0.6,0.1,1.3,0.1,2,0.1c3.9,0,7.4-1.3,10.2-3.5
	c-3.6-0.1-6.6-2.4-7.7-5.7c0.5,0.1,1,0.1,1.5,0.1c0.7,0,1.7-0.1,2.4-0.3c-3.8-0.8-6.4-4.1-6.4-8.1c0,0,0-0.1,0-0.1
	c1,0.6,2.2,1,3.5,1c-2.2-1.5-3.8-4-3.8-6.8c0-1.5,0.4-2.9,1.1-4.1c4.1,5,10.1,8.2,16.9,8.6c-0.1-0.6-0.2-1.2-0.2-1.9
	c0-4.5,3.7-8.2,8.2-8.2c2.4,0,4.5,1,6,2.6c1.9-0.4,3.6-1.1,5.2-2c-0.6,1.9-1.9,3.5-3.6,4.5c1.7-0.2,3.2-0.6,4.7-1.3
	C62.9,33.2,61.5,34.7,59.9,35.8z"/>
</svg>
