<?xml version="1.0" encoding="utf-8"?>
<!-- Generator: Adobe Illustrator 19.0.0, SVG Export Plug-In . SVG Version: 6.00 Build 0)  -->
<svg version="1.1" id="Layer_1" xmlns="http://www.w3.org/2000/svg" xmlns:xlink="http://www.w3.org/1999/xlink" x="0px" y="0px"
	 width="88px" height="88px" viewBox="0 0 88 88" style="enable-background:new 0 0 88 88;" xml:space="preserve">
<style type="text/css">
	.st0{fill:#FF02AF;}
	.st1{fill:#FFFFFF;}
</style>
<g id="Twitter">
	<circle id="XMLID_2_" class="st0" cx="44" cy="44" r="43"/>
	<path id="XMLID_3_" class="st1" d="M64,31.6c-1.5,0.7-3.1,1.1-4.7,1.3c1.7-1,3-2.6,3.6-4.5c-1.6,0.9-3.3,1.6-5.2,2
		c-1.5-1.6-3.6-2.6-6-2.6c-4.5,0-8.2,3.7-8.2,8.2c0,0.6,0.1,1.3,0.2,1.9c-6.8-0.3-12.9-3.6-16.9-8.6c-0.7,1.2-1.1,2.6-1.1,4.1
		c0,2.9,1.5,5.4,3.7,6.8c-1.3,0-2.6-0.4-3.7-1c0,0,0,0.1,0,0.1c0,4,2.8,7.3,6.6,8.1c-0.7,0.2-1.4,0.3-2.2,0.3c-0.5,0-1-0.1-1.5-0.1
		c1,3.3,4.1,5.6,7.7,5.7c-2.8,2.2-6.4,3.5-10.2,3.5c-0.7,0-1.3,0-2-0.1c3.6,2.3,8,3.7,12.6,3.7C51.7,60.3,60,47.8,60,36.9
		c0-0.4,0-0.7,0-1.1C61.5,34.7,62.9,33.2,64,31.6z"/>
</g>
</svg>
