<?xml version="1.0" encoding="utf-8"?>
<!-- Generator: Adobe Illustrator 19.0.0, SVG Export Plug-In . SVG Version: 6.00 Build 0)  -->
<svg version="1.1" id="Layer_2" xmlns="http://www.w3.org/2000/svg" xmlns:xlink="http://www.w3.org/1999/xlink" x="0px" y="0px"
	 width="500px" height="500px" viewBox="200 -200 500 500" style="enable-background:new 200 -200 500 500;" xml:space="preserve">
<style type="text/css">
	.st0{fill:#1E1E1C;}
</style>
<path class="st0" d="M680.3,3.7c-4.5-2.9-10.6-1.6-13.5,2.9c-5.7,8.8-14.2,13.7-25.4,14.6c-12.3-39.3-49-67.8-92.3-67.8
	c0,0-0.1,0-0.1,0v0H350.4v0c-0.1,0-0.1,0-0.2,0c-43.3,0-80,28.5-92.3,67.8c-10.9-1-19.2-5.9-24.8-14.5c-2.9-4.5-9-5.8-13.5-2.9
	c-4.5,2.9-5.8,9-2.9,13.5c6.2,9.5,17.5,20.6,37.2,23.1c-0.3,3.2-0.5,6.5-0.5,9.8c0,53.4,43.3,96.7,96.7,96.7
	c29.7,0,56.3-13.4,74.1-34.6l0.1,0c20.6-24.7,29.2-26.1,47.2-4.4c17.6,23.6,45.8,38.9,77.5,38.9c53.4,0,96.7-43.3,96.7-96.7
	c0-3.3-0.2-6.5-0.5-9.7c20.1-2.3,31.6-13.6,37.8-23.2C686.1,12.6,684.8,6.6,680.3,3.7z"/>
</svg>
