<?xml version="1.0" encoding="utf-8"?>
<!-- Generator: Adobe Illustrator 19.0.0, SVG Export Plug-In . SVG Version: 6.00 Build 0)  -->
<svg version="1.1" id="Layer_1" xmlns="http://www.w3.org/2000/svg" xmlns:xlink="http://www.w3.org/1999/xlink" x="0px" y="0px"
	 width="88px" height="64.4px" viewBox="0 0 88 64.4" style="enable-background:new 0 0 88 64.4;" xml:space="preserve">
<path id="XMLID_19_" d="M82.8,3.2C82.8,3.2,82.8,3.2,82.8,3.2H3v3.3v51.4v3.3h82v-3.3V6.5V3.2H82.8z M51.9,33l-6.8,6.8
	c-0.6,0.6-1.6,0.6-2.2,0.1L36.1,33l0.1,0.1L10.3,7.2h67.3L51.9,33.1L51.9,33z M30.2,32.9L7,55.2V9.6L30.2,32.9z M33.2,35.5l6.9,7.1
	c1.1,1,2.4,1.6,3.8,1.6c1.4,0,2.8-0.5,3.9-1.5l6.9-7.1l22.7,21.7H10.4L33.2,35.5z M57.8,32.9L81,9.6v45.6L57.8,32.9z"/>
</svg>
