<?xml version="1.0" encoding="utf-8"?>
<!-- Generator: Adobe Illustrator 19.0.0, SVG Export Plug-In . SVG Version: 6.00 Build 0)  -->
<svg version="1.1" id="Layer_2" xmlns="http://www.w3.org/2000/svg" xmlns:xlink="http://www.w3.org/1999/xlink" x="0px" y="0px"
	 width="500px" height="500px" viewBox="0 0 500 500" style="enable-background:new 0 0 500 500;" xml:space="preserve">
<path id="XMLID_375_" d="M370.9,271.9V81.7L189.5,159l-0.8,171.4c-11.2,0-23.9,0-28.6,0c-24.5,0-41,19.8-41,44.3
	c0,24.5,16.5,43.5,41,43.5c24.5,0,46.8-18.8,46.8-41c0-13.9,0-27.3,0-40l0.2,0l0.5-104.4l144.7-60.9v100c-8.8,0-18.1,0-22.5,0
	c-24.5,0-46.8,19.8-46.8,44.3c0,24.5,22.4,43.5,46.8,43.5c24.5,0,41-18.8,41-41C370.9,304,370.9,286.7,370.9,271.9
	C370.9,271.9,370.9,271.9,370.9,271.9z M207.7,213.3l0.2-42l144.4-61.6v42.7L207.7,213.3z"/>
</svg>
