<?xml version="1.0" encoding="utf-8"?>
<!-- Generator: Adobe Illustrator 19.0.0, SVG Export Plug-In . SVG Version: 6.00 Build 0)  -->
<svg version="1.1" id="Layer_2" xmlns="http://www.w3.org/2000/svg" xmlns:xlink="http://www.w3.org/1999/xlink" x="0px" y="0px"
	 width="500px" height="500px" viewBox="0 0 500 500" style="enable-background:new 0 0 500 500;" xml:space="preserve">
<path id="XMLID_80_" d="M360.6,140.7v-29.5H113V347c0,25.9,21.2,47.2,47.2,47.2h153.3c25.9,0,47.2-21.2,47.2-47.2v-17.7
	c52.1,0,94.3-42.2,94.3-94.3C454.9,182.9,412.7,140.7,360.6,140.7z M166.1,323.4c0,3.3-2.7,6-6,6s-6-2.7-6-6V158.4c0-3.3,2.7-6,6-6
	s6,2.7,6,6V323.4z M360.6,294V176.1c32.6,0,59,26.4,59,59C419.5,267.6,393.1,294,360.6,294z"/>
</svg>
