<?xml version="1.0" encoding="utf-8"?>
<!-- Generator: Adobe Illustrator 19.0.0, SVG Export Plug-In . SVG Version: 6.00 Build 0)  -->
<svg version="1.1" id="Layer_1" xmlns="http://www.w3.org/2000/svg" xmlns:xlink="http://www.w3.org/1999/xlink" x="0px" y="0px"
	 width="88px" height="88px" viewBox="0 0 88 88" style="enable-background:new 0 0 88 88;" xml:space="preserve">
<style type="text/css">
	.st0{fill:#FF02AF;}
	.st1{fill-rule:evenodd;clip-rule:evenodd;fill:#FFFFFF;}
</style>
<g id="Instagram">
	<circle id="XMLID_43_" class="st0" cx="44" cy="44" r="43"/>
	<path id="XMLID_49_" class="st1" d="M29.8,24.9h28.4c2.7,0,4.9,2.2,4.9,4.9v28.4c0,2.7-2.2,4.9-4.9,4.9H29.8
		c-2.7,0-4.9-2.2-4.9-4.9V29.8C24.9,27.1,27.1,24.9,29.8,24.9L29.8,24.9z M52.7,29.1c-0.9,0-1.7,0.8-1.7,1.7V35
		c0,0.9,0.8,1.7,1.7,1.7h4.3c0.9,0,1.7-0.8,1.7-1.7v-4.1c0-0.9-0.8-1.7-1.7-1.7H52.7L52.7,29.1z M58.8,41.1h-3.4
		c0.3,1,0.5,2.1,0.5,3.3c0,6.4-5.3,11.5-11.9,11.5c-6.6,0-11.9-5.2-11.9-11.5c0-1.1,0.2-2.2,0.5-3.3h-3.5v16.2
		c0,0.8,0.7,1.5,1.5,1.5h26.6c0.8,0,1.5-0.7,1.5-1.5V41.1L58.8,41.1z M44,36.5c-4.2,0-7.7,3.3-7.7,7.4c0,4.1,3.4,7.4,7.7,7.4
		c4.2,0,7.7-3.3,7.7-7.4C51.7,39.8,48.3,36.5,44,36.5z"/>
</g>
</svg>
