<?xml version="1.0" encoding="utf-8"?>
<!-- Generator: Adobe Illustrator 19.0.0, SVG Export Plug-In . SVG Version: 6.00 Build 0)  -->
<svg version="1.1" id="Layer_1" xmlns="http://www.w3.org/2000/svg" xmlns:xlink="http://www.w3.org/1999/xlink" x="0px" y="0px"
	 width="88px" height="88px" viewBox="0 0 88 88" style="enable-background:new 0 0 88 88;" xml:space="preserve">
<style type="text/css">
	.st0{fill:#FFFFFF;}
</style>
<path id="Facebook_1_" class="st0" d="M44,1C20.2,1,1,20.3,1,44c0,23.8,19.3,43,43,43s43-19.3,43-43C87,20.3,67.8,1,44,1z M54,31.2
	l-3.6,0c-2.8,0-3.4,1.3-3.4,3.3V39h6.7l-0.9,7H47v17h-7V46h-6v-7h6v-5.1c0-5.8,3.6-9,8.7-9c2.5,0,4.3,0.2,5.3,0.3V31.2z"/>
</svg>
