<?xml version="1.0" encoding="utf-8"?>
<!-- Generator: Adobe Illustrator 19.0.0, SVG Export Plug-In . SVG Version: 6.00 Build 0)  -->
<svg version="1.1" id="Layer_1" xmlns="http://www.w3.org/2000/svg" xmlns:xlink="http://www.w3.org/1999/xlink" x="0px" y="0px"
	 width="60px" height="60px" viewBox="0 0 60 60" style="enable-background:new 0 0 60 60;" xml:space="preserve">
<style type="text/css">
	.st0{fill:#231F20;}
</style>
<path id="XMLID_12_" class="st0" d="M50.7,46.9l-12-12c1.9-2.8,3-6.1,3-9.5c0-9.2-7.5-16.7-16.7-16.7c-9.2,0-16.7,7.5-16.7,16.7
	s7.5,16.7,16.7,16.7c3.2,0,6.4-0.9,9.1-2.7l12.1,12.1c0.6,0.6,1.5,1,2.3,1c0.8,0,1.7-0.3,2.3-1c0.6-0.6,1-1.4,1-2.3
	C51.7,48.3,51.3,47.5,50.7,46.9z M24.9,40.1c-8.1,0-14.7-6.6-14.7-14.7c0-8.1,6.6-14.7,14.7-14.7s14.7,6.6,14.7,14.7
	c0,2.9-0.8,5.7-2.4,8.1l-1.9-1.9c1.1-1.8,1.7-3.9,1.7-6.1c0-6.6-5.4-12.1-12.1-12.1s-12.1,5.4-12.1,12.1c0,6.6,5.4,12.1,12.1,12.1
	c2,0,4-0.5,5.6-1.4l2,2C30.3,39.4,27.7,40.1,24.9,40.1z M24.9,35.4c-5.5,0-10.1-4.5-10.1-10.1s4.5-10.1,10.1-10.1S35,19.8,35,25.4
	S30.5,35.4,24.9,35.4z M49.3,50.1c-0.5,0.5-1.3,0.5-1.8,0L32.6,35.2c0.7-0.5,1.3-1.1,1.8-1.8l14.9,14.9c0.2,0.2,0.4,0.6,0.4,0.9
	S49.6,49.8,49.3,50.1z"/>
</svg>
