<?xml version="1.0" encoding="utf-8"?>
<!-- Generator: Adobe Illustrator 19.0.0, SVG Export Plug-In . SVG Version: 6.00 Build 0)  -->
<svg version="1.1" id="Layer_1" xmlns="http://www.w3.org/2000/svg" xmlns:xlink="http://www.w3.org/1999/xlink" x="0px" y="0px"
	 width="88px" height="88px" viewBox="0 0 88 88" style="enable-background:new 0 0 88 88;" xml:space="preserve">
<style type="text/css">
	.st0{fill:#FFFFFF;}
</style>
<path id="Instagram_1_" class="st0" d="M36.4,43.9c0-4.1,3.4-7.4,7.7-7.4c4.2,0,7.7,3.3,7.7,7.4c0,4.1-3.4,7.4-7.7,7.4
	C39.8,51.4,36.4,48,36.4,43.9z M55.9,44.3c0,6.4-5.3,11.5-11.9,11.5s-11.9-5.2-11.9-11.5c0-1.1,0.2-2.3,0.5-3.3H29v16.2
	c0,0.8,0.8,1.8,1.6,1.8h26.6c0.8,0,1.7-1,1.7-1.8V41h-3.6C55.8,42,55.9,43.2,55.9,44.3z M57.3,29h-4.6c-1,0-1.7,0.8-1.7,1.7v4.6
	c0,1,0.8,1.7,1.7,1.7h4.6c1,0,1.7-0.8,1.7-1.7v-4.6C59,29.8,58.2,29,57.3,29z M87,44c0,23.8-19.3,43-43,43S1,67.8,1,44
	C1,20.3,20.2,1,44,1S87,20.3,87,44z M63,29.9c0-2.7-2.2-4.9-4.9-4.9H29.9c-2.7,0-4.9,2.2-4.9,4.9v28.2c0,2.7,2.2,4.9,4.9,4.9h28.2
	c2.7,0,4.9-2.2,4.9-4.9V29.9z"/>
</svg>
