<?xml version="1.0" encoding="utf-8"?>
<!-- Generator: Adobe Illustrator 19.0.0, SVG Export Plug-In . SVG Version: 6.00 Build 0)  -->
<svg version="1.1" id="Layer_1" xmlns="http://www.w3.org/2000/svg" xmlns:xlink="http://www.w3.org/1999/xlink" x="0px" y="0px"
	 width="300px" height="300px" viewBox="0 0 300 300" style="enable-background:new 0 0 300 300;" xml:space="preserve">
<g id="XMLID_3_">
	<path id="XMLID_6_" d="M117.6,144.1l-12.7,3.2l-7.1-28c-0.1-0.5-0.7-0.8-1.2-0.7l-4.6,1.2c-0.5,0.1-0.8,0.7-0.7,1.2l8.4,33
		c0.1,0.5,0.6,0.8,1.2,0.7l18.3-4.6c0.6-0.1,0.8-0.7,0.7-1.2l-1-4.1C118.7,144.3,118.2,144,117.6,144.1z"/>
	<path id="XMLID_28_" d="M153.4,128L136.8,56c-0.1-0.4-0.3-0.7-0.7-0.9c-0.3-0.2-0.8-0.3-1.2-0.2L38.3,78.6
		c-0.4,0.1-0.7,0.3-0.9,0.7c-0.2,0.3-0.3,0.8-0.2,1.2l34.2,132.9c0.2,0.7,0.8,1.1,1.5,1.1c0.1,0,0.2,0,0.3,0l55.7-12.9
		c0.8-0.2,1.3-1,1.1-1.8c-0.1-0.5-0.5-0.9-1-1.1l1-3.1l-6.4,4.1l-8.7,2l16.6-10.7l1.5-4.6l-26.8,17.3l-8.7,2l37-23.9l1.5-4.6
		l-47.2,30.5l-8.7,2l57.3-37.1l1.5-4.6l-65.2,42.2l-24.4-94.8l85.3-55.2l15.8,68.2c0.2,0.8,1,1.3,1.8,1.1
		C153.1,129.6,153.6,128.8,153.4,128z M40.5,81.2l1-0.2l-0.9,0.6L40.5,81.2z M41.3,84.7l9.1-5.9l9-2.2L42.1,87.7L41.3,84.7z
		 M42.9,90.8l25.5-16.5l9-2.2L43.7,93.9L42.9,90.8z M44.5,97l41.9-27.1l9-2.2l-50.1,32.4L44.5,97z M46.1,103.2l58.3-37.7l9-2.2
		l-66.5,43L46.1,103.2z M48.5,112.5l-0.8-3.1l74.7-48.3l9-2.2L48.5,112.5z"/>
</g>
<g id="XMLID_1_">
	<path id="XMLID_4_" d="M172.1,174.8l4.5,1.5c0.5,0.2,1.1-0.1,1.2-0.6l6.9-21l0,0l13.1,29.1l1.2,0.4c0.5,0.2,1.1-0.1,1.2-0.6
		l10.7-32.9c0.2-0.5-0.1-1.1-0.6-1.2l-4.5-1.5c-0.5-0.2-1.1,0.1-1.2,0.6l-6.6,20.2l0,0l-13.3-28.3l-1.2-0.4
		c-0.5-0.2-1.1,0.1-1.2,0.6l-10.7,32.9C171.3,174.1,171.6,174.6,172.1,174.8z"/>
	<path id="XMLID_9_" d="M262.7,112.2c-0.2-0.4-0.5-0.6-0.9-0.8l-94.4-31.5c-0.4-0.1-0.8-0.1-1.2,0.1c-0.4,0.2-0.6,0.5-0.8,0.9
		l-41.9,130.7c-0.3,0.8,0.2,1.6,0.9,1.9l90.8,31.5c0.2,0.1,0.3,0.1,0.5,0.1c0.6,0,1.2-0.4,1.4-1l45.5-130.8
		C262.9,113,262.9,112.5,262.7,112.2z M167.9,83.3l1,0.3l-1.1,0L167.9,83.3z M166.9,86.7l10.9-0.1l8.8,2.9l-20.6,0.2L166.9,86.7z
		 M164.9,92.8l30.4-0.3l8.8,2.9l-40.1,0.5L164.9,92.8z M163,98.8l49.9-0.6l8.8,2.9l-59.7,0.7L163,98.8z M161,104.9l69.4-0.8l8.8,2.9
		L160,108L161,104.9z M159.1,111l88.9-1l8.8,2.9l-98.7,1.1L159.1,111z M215.7,239.5l-6.7,0.1l-8.4-2.9l16.2-0.2L215.7,239.5z
		 M217.8,233.5l-25.7,0.3l-8.4-2.9l35.2-0.4L217.8,233.5z M219.9,227.4l-44.8,0.5l-8.4-2.9l54.3-0.6L219.9,227.4z M222,221.3
		l-63.8,0.7l-8.4-2.9l73.3-0.8L222,221.3z M224.1,215.2l-82.8,0.9l-8.4-2.9l92.3-1.1L224.1,215.2z M226.3,209.1l-99,1.1l29.9-93.2
		l101.6-1.2L226.3,209.1z"/>
</g>
</svg>
