<?xml version="1.0" encoding="utf-8"?>
<!-- Generator: Adobe Illustrator 19.0.0, SVG Export Plug-In . SVG Version: 6.00 Build 0)  -->
<svg version="1.1" id="icon-Entertainment" xmlns="http://www.w3.org/2000/svg" xmlns:xlink="http://www.w3.org/1999/xlink" x="0px"
	 y="0px" width="500px" height="500px" viewBox="0 0 500 500" style="enable-background:new 0 0 500 500;" xml:space="preserve">
<g id="XMLID_11_">
	<path id="XMLID_16_" d="M466,190.6v-81.7H35.3v81.7c32.8,0,59.4,26.6,59.4,59.4s-26.6,59.4-59.4,59.4v81.7H466v-81.7
		c-32.8,0-59.4-26.6-59.4-59.4S433.2,190.6,466,190.6z M317.5,331.7H154.1V168.3h163.4V331.7z M384.3,368.8h-14.9V354h14.9V368.8z
		 M384.3,324.3h-14.9v-14.9h14.9V324.3z M384.3,279.7h-14.9v-14.9h14.9V279.7z M384.3,235.1h-14.9v-14.9h14.9V235.1z M384.3,190.6
		h-14.9v-14.9h14.9V190.6z M384.3,146h-14.9v-14.9h14.9V146z"/>
	<path id="XMLID_44_" d="M198.6,231.2h74.3c1.9,0,3.5-1.6,3.5-3.5s-1.6-3.5-3.5-3.5h-74.3c-1.9,0-3.5,1.6-3.5,3.5
		S196.7,231.2,198.6,231.2z"/>
	<path id="XMLID_45_" d="M198.6,275.8h74.3c1.9,0,3.5-1.6,3.5-3.5s-1.6-3.5-3.5-3.5h-74.3c-1.9,0-3.5,1.6-3.5,3.5
		S196.7,275.8,198.6,275.8z"/>
</g>
</svg>
