<?xml version="1.0" encoding="utf-8"?>
<!-- Generator: Adobe Illustrator 19.0.0, SVG Export Plug-In . SVG Version: 6.00 Build 0)  -->
<svg version="1.1" id="Restaurants" xmlns="http://www.w3.org/2000/svg" xmlns:xlink="http://www.w3.org/1999/xlink" x="0px"
	 y="0px" width="500px" height="500px" viewBox="0 0 500 500" style="enable-background:new 0 0 500 500;" xml:space="preserve">
<style type="text/css">
	.st0{stroke:#000000;stroke-width:4;stroke-linecap:square;stroke-miterlimit:10;}
	.st1{fill:none;stroke:#000000;stroke-width:4;stroke-linecap:square;stroke-miterlimit:10;}
</style>
<g id="XMLID_8_">
	<polygon id="XMLID_5_" class="st0" points="463.7,358 36.3,358 80.3,405.5 416.2,405.5 	"/>
	<circle id="XMLID_1_" class="st0" cx="250" cy="115.2" r="31.7"/>
	<g id="XMLID_2_">
		<g id="XMLID_38_">
			<path id="XMLID_39_" d="M250,145.4c-104.9,0-190,85.1-190,190h380C440,230.4,354.9,145.4,250,145.4z M131.5,244.6
				c0,0,36.1-61.2,116.6-63.3C248.1,181.2,174.9,203.4,131.5,244.6z"/>
		</g>
		<g id="XMLID_30_">
			<path id="XMLID_31_" class="st1" d="M250,145.4c-104.9,0-190,85.1-190,190h380C440,230.4,354.9,145.4,250,145.4z M131.5,244.6
				c0,0,36.1-61.2,116.6-63.3C248.1,181.2,174.9,203.4,131.5,244.6z"/>
		</g>
	</g>
</g>
</svg>
