<?xml version="1.0" encoding="utf-8"?>
<!-- Generator: Adobe Illustrator 19.0.0, SVG Export Plug-In . SVG Version: 6.00 Build 0)  -->
<svg version="1.1" id="Layer_2" xmlns="http://www.w3.org/2000/svg" xmlns:xlink="http://www.w3.org/1999/xlink" x="0px" y="0px"
	 width="500px" height="500px" viewBox="0 0 500 500" style="enable-background:new 0 0 500 500;" xml:space="preserve">
<g id="XMLID_298_">
	<path id="XMLID_300_" d="M341.1,358.4l-10.5-112c-10.8-2.8-21.1-8.9-29.1-15.7c-18.1,16.5-40.4,23.2-64.2,19.2
		c-1.3,8.4-4.8,16.2-10.3,22.1c-7.2,7.8-16.9,12.1-27.5,12.1c-10.6,0-20.8-4.4-28.4-12.3l-13.4,86.7c-8,2.2-14,10.3-14,19.9
		c0,11.3,8.3,20.6,18.4,20.6h175c10.1,0,18.4-9.3,18.4-20.6C355.5,368.7,349.3,360.4,341.1,358.4z M281.6,294.4
		c1.7-0.1,3.2,0.8,3.4,2.1l6,44.1c0.2,1.3-1.1,2.5-2.8,2.6c-0.1,0-0.2,0-0.3,0c-1.6,0-2.9-0.9-3.1-2.1l-6-44.1
		C278.7,295.7,279.9,294.6,281.6,294.4z M246.9,297.7c0-1.3,1.4-2.4,3.1-2.4c1.7,0,3.1,1.1,3.1,2.4V341c0,1.3-1.4,2.4-3.1,2.4
		c-1.7,0-3.1-1.1-3.1-2.4V297.7z M210.3,340.7l6-44.1c0.2-1.3,1.7-2.3,3.4-2.1c1.7,0.1,2.9,1.3,2.8,2.6l-6,44.1
		c-0.2,1.2-1.5,2.1-3.1,2.1c-0.1,0-0.2,0-0.3,0C211.4,343.2,210.1,342,210.3,340.7z"/>
	<path id="XMLID_299_" d="M342.5,127.8c-9.8,0-17.9,5.5-25.7,10.3C305.2,114.5,286,97,255.1,97c-30.8,0-55.2,17.5-66.8,41.1
		c-7.8-4.7-15.9-10.3-25.7-10.3c-30.8,0-56.5,20.6-56.5,51.4c0,30.8,28.4,55.9,61.7,51.4c-4.7,20.3,11.1,41.3,31.7,41.3
		c17.9,0,31.6-15.8,29.9-36.2c25.2,7.2,51.2,2.2,71.9-20.6c9.5,10.3,26,20.6,41.1,20.6c30.8,0,51.4-25.7,51.4-56.5
		C393.9,148.4,373.3,127.8,342.5,127.8z"/>
</g>
</svg>
