<?xml version="1.0" encoding="iso-8859-1"?>
<!-- Generator: Adobe Illustrator 19.0.0, SVG Export Plug-In . SVG Version: 6.00 Build 0)  -->
<svg version="1.1" id="Layer_1" xmlns="http://www.w3.org/2000/svg" xmlns:xlink="http://www.w3.org/1999/xlink" x="0px" y="0px"
	 width="88px" height="88px" viewBox="0 0 88 88" enable-background="new 0 0 88 88" xml:space="preserve">
<circle id="XMLID_1_" fill="#FFFFFF" cx="44.4" cy="45.6" r="30.4"/>
<path fill="#FF02AF" d="M44,0.6C20,0.6,0.6,20,0.6,44S20,87.4,44,87.4S87.4,68,87.4,44S68,0.6,44,0.6z M54,31.3h-3.6
	c-2.9,0-3.4,1.3-3.4,3.3v4.3h6.7l-0.9,6.8H47v17.4h-6.9V45.7h-5.9v-6.8h5.9v-5c0-5.8,3.5-9,8.7-9c2.4,0,4.6,0.2,5.2,0.3V31.3z"/>
</svg>
