<?xml version="1.0" encoding="utf-8"?>
<!-- Generator: Adobe Illustrator 19.0.0, SVG Export Plug-In . SVG Version: 6.00 Build 0)  -->
<svg version="1.1" id="purple-logo-black" xmlns="http://www.w3.org/2000/svg" xmlns:xlink="http://www.w3.org/1999/xlink" x="0px"
	 y="0px" width="300.9px" height="63.2px" viewBox="0 0 300.9 63.2" style="enable-background:new 0 0 300.9 63.2;"
	 xml:space="preserve">
<style type="text/css">
	.st0{fill:#010202;}
</style>
<path class="st0" d="M96,44.4c0,3.5-2.8,6.3-6.3,6.3H71.3c-3.5,0-6.3-2.8-6.3-6.3V6.3h-6.2v38.1c0,6.9,5.6,12.5,12.5,12.5h18.4
	c6.9,0,12.5-5.6,12.5-12.5V6.3H96V44.4z"/>
<path class="st0" d="M297.3,18.8c0-6.9-5.6-12.5-12.5-12.5h-21.3c-6.9,0-12.5,5.6-12.5,12.5h0v25.6c0,6.9,5.6,12.5,12.5,12.5H293
	v-6.2h-29.5c-3.5,0-6.3-2.8-6.3-6.3V41c0-3.5,2.8-6.3,6.3-6.3h21.3c6.9,0,12.5-5.6,12.5-12.5L297.3,18.8L297.3,18.8z M291.1,22.2
	L291.1,22.2c0,3.5-2.8,6.3-6.3,6.3h-21.3c-2.3,0-4.4,0.6-6.3,1.7V18.9c0-3.5,2.8-6.3,6.3-6.3h21.3c3.5,0,6.3,2.8,6.3,6.3V22.2z"/>
<path class="st0" d="M141.9,6.3h-20.5c-6.9,0-12.5,5.6-12.5,12.5v38.1h6.2V18.9c0-3.5,2.8-6.3,6.3-6.3h20.5c3.5,0,6.3,2.8,6.3,6.3
	v3.2h6.2v-3.2C154.5,11.9,148.8,6.3,141.9,6.3z"/>
<path class="st0" d="M218.5,44.4V6.3h-6.2v38.1c0,6.9,5.6,12.5,12.5,12.5h23v-6.2h-23C221.3,50.7,218.5,47.9,218.5,44.4z"/>
<path class="st0" d="M194.7,6.3h-23.2c-6.9,0-12.5,5.6-12.5,12.5h0v38.1h6.2V44.3c0-3.5,2.8-6.3,6.3-6.3h23.2
	c6.9,0,12.5-5.6,12.5-12.5v-6.7h0C207.2,11.9,201.6,6.3,194.7,6.3z M201,25.5L201,25.5c0,3.5-2.8,6.3-6.3,6.3h-23.2
	c-2.3,0-4.4,0.6-6.3,1.7V18.9c0-3.5,2.8-6.3,6.3-6.3v0h23.2v0c3.5,0,6.3,2.8,6.3,6.3V25.5z"/>
<path class="st0" d="M41.1,6.3H17.9C11,6.3,5.4,11.9,5.4,18.8h0v38.1h6.2V44.3c0-3.5,2.8-6.3,6.3-6.3h23.2c6.9,0,12.5-5.6,12.5-12.5
	v-6.7h0C53.6,11.9,48,6.3,41.1,6.3z M47.4,25.5L47.4,25.5c0,3.5-2.8,6.3-6.3,6.3H17.9c-2.3,0-4.5,0.6-6.3,1.7V18.9
	c0-3.5,2.8-6.3,6.3-6.3v0h23.2v0c3.5,0,6.3,2.8,6.3,6.3V25.5z"/>
</svg>
