<?xml version="1.0" encoding="utf-8"?>
<!-- Generator: Adobe Illustrator 19.0.0, SVG Export Plug-In . SVG Version: 6.00 Build 0)  -->
<svg version="1.1" id="purple-logo-black" xmlns="http://www.w3.org/2000/svg" xmlns:xlink="http://www.w3.org/1999/xlink" x="0px"
	 y="0px" width="566.8px" height="119.2px" viewBox="0 0 566.8 119.2" style="enable-background:new 0 0 566.8 119.2;"
	 xml:space="preserve">
<style type="text/css">
	.st0{fill:#010202;}
</style>
<path class="st0" d="M180,83.7c0,6.6-5.3,11.9-11.9,11.9h-34.6c-6.5,0-11.9-5.3-11.9-11.9V11.9H110v71.7c0,13,10.6,23.6,23.6,23.6
	h34.6c13,0,23.6-10.6,23.6-23.6V11.9H180V83.7z"/>
<path class="st0" d="M559.3,35.5c0-13-10.6-23.5-23.6-23.5h-40.1c-13,0-23.6,10.5-23.6,23.5h0v48.2c0,13,10.6,23.6,23.6,23.6h55.6
	V95.5h-55.6c-6.5,0-11.9-5.3-11.9-11.9v-6.3c0-6.5,5.3-11.9,11.9-11.9h40c13,0,23.6-10.6,23.6-23.6L559.3,35.5L559.3,35.5z
	 M547.6,41.9L547.6,41.9c0,6.5-5.3,11.9-11.9,11.9h-40c-4.3,0-8.4,1.2-11.9,3.2V35.5c0-6.5,5.3-11.9,11.9-11.9h40.1
	c6.5,0,11.9,5.3,11.9,11.9V41.9z"/>
<path class="st0" d="M266.6,11.9H228c-13,0-23.6,10.6-23.6,23.6v71.7h11.7V35.5c0-6.5,5.3-11.9,11.9-11.9h38.6
	c6.6,0,11.9,5.3,11.9,11.9v6.1h11.7v-6.1C290.2,22.5,279.6,11.9,266.6,11.9z"/>
<path class="st0" d="M410.9,83.7V11.9h-11.7v71.7c0,13,10.6,23.6,23.6,23.6H466V95.5h-43.2C416.2,95.5,410.9,90.2,410.9,83.7z"/>
<path class="st0" d="M366,11.9h-43.6c-13,0-23.6,10.6-23.6,23.5h0v71.8h11.7V83.5c0-6.5,5.3-11.9,11.9-11.9H366
	c13,0,23.6-10.6,23.6-23.6V35.5h0C389.6,22.5,379,11.9,366,11.9z M377.9,48.1L377.9,48.1c0,6.5-5.3,11.9-11.9,11.9h-43.6
	c-4.3,0-8.4,1.2-11.9,3.2V35.5c0-6.6,5.3-11.9,11.9-11.9v0H366v0c6.5,0,11.9,5.3,11.9,11.9V48.1z"/>
<path class="st0" d="M76.6,11.9H33c-13,0-23.5,10.5-23.6,23.5h0v71.8h11.7V83.5c0-6.5,5.3-11.9,11.9-11.9h43.6
	c13,0,23.6-10.6,23.6-23.6V35.5h0C100.1,22.5,89.6,11.9,76.6,11.9z M88.5,48.1L88.5,48.1c0,6.5-5.3,11.9-11.9,11.9H33
	c-4.3,0-8.4,1.2-11.9,3.2V35.5c0-6.6,5.3-11.9,11.9-11.9v0h43.6v0c6.5,0,11.9,5.3,11.9,11.9V48.1z"/>
</svg>
